# 3ds Max Wavefront OBJ Exporter v0.97b - (c)2007 guruware
# File Created: 04.11.2019 11:31:18

#
# object Smartphone
#

v  -35.9698 -90.4980 0.0618
v  -27.2085 -90.5955 0.0618
v  -27.2148 -95.3524 0.0618
v  -36.7568 -95.1770 0.0618
v  -37.0881 -91.7150 0.0618
v  -34.1694 -95.1267 0.9422
v  -27.2148 -95.3524 0.9422
v  -27.1938 -91.1983 0.9422
v  -34.4763 -92.0178 0.9422
v  -33.7219 -91.2199 0.9422
v  -36.8535 -95.1752 0.1585
v  -36.8535 -95.1752 0.8863
v  -37.1885 -91.6813 0.8863
v  -37.1885 -91.6813 0.1585
v  -27.2212 -100.2059 0.1585
v  -27.2212 -100.2059 0.8863
v  -35.3480 -99.9975 0.8863
v  -35.3480 -99.9975 0.1585
v  -17.5761 -95.5294 0.1585
v  -17.5761 -95.5294 0.8863
v  -17.7432 -99.8205 0.8863
v  -17.7432 -99.8205 0.1585
v  -27.2084 -90.4988 0.1585
v  -27.2084 -90.4988 0.8863
v  -18.4031 -90.0105 0.8863
v  -18.4031 -90.0105 0.1585
v  -17.8382 -99.7751 0.0618
v  -19.1208 -100.8946 0.0618
v  -27.2210 -100.1092 0.0618
v  -17.6728 -95.5277 0.0618
v  -33.0680 -99.1879 0.9422
v  -27.1787 -99.5074 0.9422
v  -34.0312 -98.2677 0.9422
v  -36.7042 -98.6644 0.1585
v  -36.7042 -98.6644 0.8863
v  -17.3949 -93.3821 0.1585
v  -17.3949 -93.3821 0.8863
v  -18.4417 -90.1094 0.0618
v  -17.3136 -91.2705 0.0618
v  -17.4912 -93.3739 0.0618
v  -18.7193 -95.4864 0.9422
v  -18.5510 -93.6226 0.9422
v  -19.1272 -91.0425 0.9422
v  -18.3827 -91.7587 0.9422
v  -19.0886 -100.9948 0.1585
v  -19.0886 -100.9948 0.8863
v  -36.0118 -90.4008 0.1585
v  -36.0118 -90.4008 0.8863
v  -35.3075 -99.9018 0.0618
v  -36.6092 -98.6222 0.0618
v  -19.7661 -99.9532 0.9422
v  -18.8751 -99.2264 0.9422
v  -17.2136 -91.2347 0.8863
v  -17.2136 -91.2347 0.1585
v  -37.0925 -91.6926 0.9830
v  -36.7568 -95.1737 0.9830
v  -36.2888 -95.1663 0.9830
v  -36.0853 -94.6752 0.9830
v  -35.6253 -94.3722 0.9830
v  -35.8748 -91.8350 0.9830
v  -36.6084 -98.6511 0.9830
v  -35.4078 -98.4843 0.9830
v  -36.0497 -95.6859 0.9830
v  -35.5194 -95.9384 0.9830
v  -35.2561 -99.9676 0.9830
v  -34.2253 -99.6326 0.9830
v  -27.2153 -100.1094 0.9830
v  -27.2023 -99.8974 0.9830
v  -19.1429 -100.9149 0.9830
v  -19.4139 -100.5157 0.9830
v  -17.8287 -99.7755 0.9830
v  -18.2691 -99.5435 0.9830
v  -17.6728 -95.5295 0.9830
v  -17.9884 -95.5297 0.9830
v  -18.1575 -96.9061 0.9830
v  -17.4902 -93.3659 0.9830
v  -17.8351 -93.3071 0.9830
v  -17.9801 -94.1142 0.9830
v  -17.8637 -93.3571 0.9830
v  -17.9137 -93.3836 0.9830
v  -18.4600 -90.0886 0.9830
v  -18.7490 -90.4853 0.9830
v  -17.7557 -91.4809 0.9830
v  -17.3016 -91.2747 0.9830
v  -27.2063 -90.5954 0.9830
v  -27.2016 -90.8077 0.9830
v  -35.9199 -90.4309 0.9830
v  -34.8845 -90.7696 0.9830
v  -34.2509 -95.1325 0.9830
v  -34.5612 -91.9887 0.9830
v  -34.1113 -98.3041 0.9830
v  -33.1026 -99.2678 0.9830
v  -27.1834 -99.5890 0.9830
v  -19.7392 -100.0366 0.9830
v  -18.7951 -99.2665 0.9830
v  -18.6378 -95.4918 0.9830
v  -18.4678 -93.6094 0.9830
v  -19.0950 -90.9602 0.9830
v  -18.2978 -91.7271 0.9830
v  -27.1947 -91.1167 0.9830
v  -33.7572 -91.1384 0.9830
v  -35.0750 -94.6233 0.9830
v  -34.8156 -95.1415 0.9830
v  -35.0393 -95.6340 0.9830
v  -18.1789 -95.5147 0.9830
v  -17.9558 -93.2564 0.9830
v  -17.9852 -93.3049 0.9830
v  -17.9049 -93.2314 0.9830
v  -36.2233 -95.1651 0.9793
v  -36.0053 -95.6386 0.9793
v  -35.5623 -95.1546 0.9793
v  -36.0378 -94.7176 0.9793
v  -35.5236 -95.8682 0.9793
v  -35.0856 -95.5905 0.9793
v  -35.1180 -94.6715 0.9793
v  -35.6201 -94.4424 0.9793
v  -34.8822 -95.1427 0.9793
v  -36.0501 -95.6867 0.9507
v  -36.2897 -95.1663 0.9507
v  -35.5195 -95.9394 0.9507
v  -35.0384 -95.6345 0.9507
v  -34.8145 -95.1415 0.9507
v  -35.0741 -94.6228 0.9507
v  -35.6256 -94.3712 0.9507
v  -36.0858 -94.6744 0.9507
v  -18.0036 -95.5287 0.9830
v  -17.9966 -94.3383 0.9830
v  -18.1638 -95.5157 0.9830
v  -18.1457 -96.6857 0.9830
v  -17.8591 -93.2589 0.9830
v  -17.9604 -93.3546 0.9830
v  -17.9056 -93.2487 0.9830
v  -17.9451 -93.2681 0.9830
v  -17.9097 -93.3068 0.9830
v  -17.8707 -93.2697 0.9830
v  -17.9678 -93.3056 0.9830
v  -17.9487 -93.3439 0.9830
v  -17.8747 -93.3457 0.9830
v  -17.8524 -93.3066 0.9830
v  -17.9131 -93.3660 0.9830
v  -18.8132 -99.5976 0.0232
v  -18.8132 -99.5976 0.1874
v  -19.0932 -99.7136 0.1874
v  -19.0932 -99.7136 0.0232
v  -18.6973 -99.3177 0.0232
v  -18.6973 -99.3177 0.1874
v  -18.8132 -99.0378 0.0232
v  -18.8132 -99.0378 0.1874
v  -19.0932 -98.9218 0.0232
v  -19.0932 -98.9218 0.1874
v  -19.3731 -99.0378 0.0232
v  -19.3731 -99.0378 0.1874
v  -19.4891 -99.3177 0.0232
v  -19.4891 -99.3177 0.1874
v  -19.3731 -99.5976 0.0232
v  -19.3731 -99.5976 0.1874
v  -19.4512 -99.3177 0.0583
v  -19.3463 -99.0646 0.0583
v  -19.0932 -98.9597 0.0583
v  -19.0932 -99.6757 0.0583
v  -18.7352 -99.3177 0.0583
v  -18.8400 -99.0646 0.0583
v  -18.8400 -99.5709 0.0583
v  -19.3463 -99.5709 0.0583
v  -19.0932 -99.6757 0.0232
v  -18.8400 -99.5709 0.0232
v  -19.3463 -99.5709 0.0232
v  -19.4512 -99.3177 0.0232
v  -19.3463 -99.0646 0.0232
v  -19.0932 -98.9597 0.0232
v  -18.8400 -99.0646 0.0232
v  -18.7352 -99.3177 0.0232
v  -21.3420 -100.7131 0.2691
v  -21.3582 -100.8991 0.2691
v  -23.0057 -100.7588 0.2691
v  -22.9894 -100.5728 0.2691
v  -22.9682 -100.7588 0.5560
v  -21.4016 -100.8991 0.6425
v  -21.3853 -100.7131 0.6425
v  -22.9519 -100.5728 0.5560
v  -21.3535 -90.0702 0.2691
v  -21.3434 -90.2566 0.2691
v  -22.9943 -90.3492 0.2691
v  -23.0043 -90.1628 0.2691
v  -22.9571 -90.3439 0.5560
v  -21.3863 -90.2627 0.6425
v  -21.3964 -90.0763 0.6425
v  -22.9671 -90.1575 0.5560
v  -24.8402 -90.4561 0.2691
v  -24.8502 -90.2697 0.2691
v  -23.1994 -90.1770 0.2691
v  -23.1893 -90.3635 0.2691
v  -23.2365 -90.1823 0.5560
v  -24.8073 -90.2636 0.6425
v  -24.7973 -90.4500 0.6425
v  -23.2265 -90.3688 0.5560
# 196 vertices

vn 0.0000 0.0000 -1.0000
vn 0.0000 0.0000 1.0000
vn -0.9954 -0.0954 0.0000
vn -0.0256 -0.9997 0.0000
vn 0.9992 -0.0389 0.0000
vn -0.0554 0.9985 0.0000
vn -0.9991 -0.0428 0.0000
vn 0.9965 -0.0841 0.0000
vn -0.0966 -0.9953 0.0000
vn 0.0111 0.9999 0.0000
vn -0.7010 -0.7131 0.0000
vn -0.7363 0.6766 0.0000
vn 0.6576 -0.7534 0.0000
vn 0.7172 0.6969 0.0000
vn 0.4452 0.0439 0.8944
vn 0.4469 0.0197 0.8943
vn 0.3090 0.3235 0.8943
vn 0.0242 0.4467 0.8943
vn 0.0269 0.4466 0.8944
vn -0.2828 0.3467 0.8943
vn -0.4470 0.0186 0.8943
vn -0.4456 0.0402 0.8943
vn -0.3102 -0.3224 0.8943
vn 0.0086 -0.4473 0.8943
vn 0.0015 -0.4474 0.8943
vn 0.3251 -0.3074 0.8943
vn -0.3873 -0.1783 0.9045
vn -0.1789 -0.3755 0.9094
vn 0.2234 -0.3524 0.9088
vn 0.3863 -0.1755 0.9055
vn 0.3798 0.1901 0.9053
vn 0.1729 0.3790 0.9091
vn -0.2293 0.3480 0.9090
vn -0.3934 0.1631 0.9048
vn -0.7084 -0.0681 0.7025
vn -0.0180 -0.8327 0.5534
vn 0.7244 -0.0274 0.6889
vn -0.0424 0.7471 0.6633
vn -0.7073 -0.0302 0.7062
vn 0.7059 -0.0596 0.7058
vn -0.0734 -0.7457 0.6622
vn 0.0126 0.8392 0.5437
vn -0.5572 0.5149 0.6515
vn -0.5359 -0.5478 0.6425
vn 0.5159 0.5026 0.6937
vn 0.4729 -0.5436 0.6935
vn 0.7281 -0.0635 0.6825
vn 0.3827 -0.9239 0.0000
vn 0.9239 -0.3827 0.0000
vn 0.9239 0.3827 0.0000
vn 0.3827 0.9239 0.0000
vn -0.3827 0.9239 0.0000
vn -0.9239 0.3827 0.0000
vn -0.9239 -0.3827 0.0000
vn -0.3827 -0.9239 0.0000
vn -0.0547 0.0048 0.9985
vn -0.9878 0.0864 0.1293
vn -0.0869 -0.9962 -0.0008
vn 0.9896 -0.0865 0.1149
vn 0.0869 0.9962 0.0008
vn -0.0548 -0.0030 0.9985
vn -0.9902 -0.0533 0.1293
vn 0.0539 -0.9985 -0.0007
vn 0.9919 0.0535 0.1149
vn -0.0539 0.9985 0.0007
vn 0.0548 0.0030 0.9985
vn 0.9902 0.0532 0.1293
vn -0.0539 0.9985 -0.0008
vn -0.9919 -0.0535 0.1149
vn 0.0539 -0.9985 0.0008
vn 0.0079 0.7071 -0.7071
vn 0.7046 -0.0595 -0.7071
vn -0.0683 -0.7047 -0.7062
vn -0.7068 -0.0303 -0.7068
vn 0.7067 -0.0275 -0.7070
vn -0.7050 -0.0675 -0.7060
vn -0.0392 0.7063 -0.7068
vn -0.0181 -0.7070 -0.7070
vn -0.5207 0.4785 -0.7071
vn -0.4957 -0.5043 -0.7071
vn 0.5072 0.4928 -0.7071
vn 0.4650 -0.5328 -0.7071
vn 0.7051 -0.0595 -0.7067
# 83 vertex normals

vt 0.0323 0.8018 0.0000
vt 0.1835 0.8064 0.0000
vt 0.1816 0.8889 0.0000
vt 0.0166 0.8822 0.0000
vt 0.0124 0.8223 0.0000
vt 0.1580 0.7161 0.0000
vt 0.2782 0.7107 0.0000
vt 0.2794 0.7825 0.0000
vt 0.1534 0.7699 0.0000
vt 0.1666 0.7835 0.0000
vt 0.9292 0.5927 0.0000
vt 0.9297 0.6053 0.0000
vt 0.8689 0.6071 0.0000
vt 0.8685 0.5945 0.0000
vt 0.1838 0.5945 0.0000
vt 0.1834 0.6071 0.0000
vt 0.0429 0.6029 0.0000
vt 0.0432 0.5903 0.0000
vt 0.4300 0.6002 0.0000
vt 0.4300 0.6128 0.0000
vt 0.3556 0.6115 0.0000
vt 0.3558 0.5989 0.0000
vt 0.6864 0.6003 0.0000
vt 0.6867 0.6128 0.0000
vt 0.5341 0.6126 0.0000
vt 0.5340 0.6000 0.0000
vt 0.3418 0.9688 0.0000
vt 0.3192 0.9876 0.0000
vt 0.1796 0.9714 0.0000
vt 0.3465 0.8956 0.0000
vt 0.1762 0.6456 0.0000
vt 0.2780 0.6389 0.0000
vt 0.1597 0.6618 0.0000
vt 0.9894 0.5899 0.0000
vt 0.9900 0.6025 0.0000
vt 0.4672 0.6002 0.0000
vt 0.4672 0.6128 0.0000
vt 0.3351 0.8018 0.0000
vt 0.3542 0.8223 0.0000
vt 0.3503 0.8585 0.0000
vt 0.4250 0.7066 0.0000
vt 0.4283 0.7388 0.0000
vt 0.4189 0.7835 0.0000
vt 0.4317 0.7710 0.0000
vt 0.3249 0.5985 0.0000
vt 0.3248 0.6110 0.0000
vt 0.8385 0.5955 0.0000
vt 0.8389 0.6080 0.0000
vt 0.0400 0.9642 0.0000
vt 0.0180 0.9417 0.0000
vt 0.4060 0.6296 0.0000
vt 0.4216 0.6420 0.0000
vt 0.0100 0.6020 0.0000
vt 0.0103 0.5894 0.0000
vt 0.5045 0.6127 0.0000
vt 0.5045 0.6001 0.0000
vt 0.2014 0.5607 0.0000
vt 0.2059 0.5004 0.0000
vt 0.2140 0.5003 0.0000
vt 0.2176 0.5087 0.0000
vt 0.2257 0.5138 0.0000
vt 0.2223 0.5578 0.0000
vt 0.2072 0.4402 0.0000
vt 0.2281 0.4426 0.0000
vt 0.2179 0.4913 0.0000
vt 0.2270 0.4867 0.0000
vt 0.2301 0.4169 0.0000
vt 0.2481 0.4223 0.0000
vt 0.3692 0.4114 0.0000
vt 0.3695 0.4150 0.0000
vt 0.5087 0.3954 0.0000
vt 0.5041 0.4023 0.0000
vt 0.5317 0.4147 0.0000
vt 0.5242 0.4188 0.0000
vt 0.5357 0.4880 0.0000
vt 0.5303 0.4881 0.0000
vt 0.5269 0.4644 0.0000
vt 0.5395 0.5254 0.0000
vt 0.5336 0.5265 0.0000
vt 0.5308 0.5126 0.0000
vt 0.5331 0.5256 0.0000
vt 0.5322 0.5252 0.0000
vt 0.5237 0.5823 0.0000
vt 0.5186 0.5755 0.0000
vt 0.5355 0.5580 0.0000
vt 0.5434 0.5615 0.0000
vt 0.3725 0.5757 0.0000
vt 0.3725 0.5721 0.0000
vt 0.2221 0.5821 0.0000
vt 0.2398 0.5758 0.0000
vt 0.2492 0.5001 0.0000
vt 0.2508 0.5002 0.0000
vt 0.2466 0.5541 0.0000
vt 0.2450 0.5546 0.0000
vt 0.2505 0.4453 0.0000
vt 0.2521 0.4459 0.0000
vt 0.2677 0.4282 0.0000
vt 0.2684 0.4297 0.0000
vt 0.2521 0.4460 0.0000
vt 0.3699 0.4204 0.0000
vt 0.3700 0.4220 0.0000
vt 0.2683 0.4298 0.0000
vt 0.4986 0.4107 0.0000
vt 0.4981 0.4123 0.0000
vt 0.5151 0.4237 0.0000
vt 0.5137 0.4246 0.0000
vt 0.4980 0.4123 0.0000
vt 0.5191 0.4889 0.0000
vt 0.5175 0.4891 0.0000
vt 0.5136 0.4245 0.0000
vt 0.5226 0.5214 0.0000
vt 0.5210 0.5212 0.0000
vt 0.5125 0.5674 0.0000
vt 0.5118 0.5659 0.0000
vt 0.5244 0.5533 0.0000
vt 0.5260 0.5539 0.0000
vt 0.3725 0.5667 0.0000
vt 0.3725 0.5651 0.0000
vt 0.5119 0.5658 0.0000
vt 0.2592 0.5690 0.0000
vt 0.2597 0.5674 0.0000
vt 0.2465 0.5539 0.0000
vt 0.2599 0.5674 0.0000
vt 0.2351 0.5093 0.0000
vt 0.2394 0.5002 0.0000
vt 0.2354 0.4918 0.0000
vt 0.5270 0.4884 0.0000
vt 0.5315 0.5274 0.0000
vt 0.5310 0.5266 0.0000
vt 0.5324 0.5278 0.0000
vt 0.0986 0.7800 0.0000
vt 0.0916 0.7857 0.0000
vt 0.0883 0.7749 0.0000
vt 0.0989 0.7716 0.0000
vt 0.0824 0.7858 0.0000
vt 0.0777 0.7782 0.0000
vt 0.0850 0.7641 0.0000
vt 0.0945 0.7642 0.0000
vt 0.0777 0.7697 0.0000
vt 0.0920 0.7869 0.0000
vt 0.0997 0.7806 0.0000
vt 0.0818 0.7870 0.0000
vt 0.0765 0.7786 0.0000
vt 0.0817 0.7870 0.0000
vt 0.0765 0.7692 0.0000
vt 0.0846 0.7630 0.0000
vt 0.0766 0.7690 0.0000
vt 0.0951 0.7630 0.0000
vt 0.1001 0.7713 0.0000
vt 0.0952 0.7630 0.0000
vt 0.0998 0.7805 0.0000
vt 0.0480 0.9872 0.0000
vt 0.0686 0.9872 0.0000
vt 0.0482 0.9900 0.0000
vt 0.0280 0.9896 0.0000
vt 0.5244 0.5534 0.0000
vt 0.5332 0.5273 0.0000
vt 0.5314 0.5257 0.0000
vt 0.0123 0.9702 0.0000
vt 0.0119 0.9695 0.0000
vt 0.0127 0.9693 0.0000
vt 0.0130 0.9702 0.0000
vt 0.0119 0.9688 0.0000
vt 0.0125 0.9684 0.0000
vt 0.0136 0.9690 0.0000
vt 0.0136 0.9698 0.0000
vt 0.0132 0.9684 0.0000
vt 0.8694 0.6094 0.0000
vt 0.9298 0.6076 0.0000
vt 0.0444 0.6047 0.0000
vt 0.1834 0.6094 0.0000
vt 0.3563 0.6137 0.0000
vt 0.4298 0.6152 0.0000
vt 0.5351 0.6147 0.0000
vt 0.6867 0.6152 0.0000
vt 0.9900 0.6049 0.0000
vt 0.4674 0.6152 0.0000
vt 0.3236 0.6131 0.0000
vt 0.1833 0.6094 0.0000
vt 0.8373 0.6098 0.0000
vt 0.8680 0.6092 0.0000
vt 0.8383 0.6103 0.0000
vt 0.0110 0.6042 0.0000
vt 0.0436 0.6052 0.0000
vt 0.5051 0.6150 0.0000
vt 0.5338 0.6150 0.0000
vt 0.3550 0.6138 0.0000
vt 0.3249 0.6134 0.0000
vt 0.5037 0.6150 0.0000
vt 0.0519 0.7313 0.0000
vt 0.0519 0.7341 0.0000
vt 0.0467 0.7341 0.0000
vt 0.0467 0.7313 0.0000
vt 0.0152 0.7313 0.0000
vt 0.0152 0.7341 0.0000
vt 0.0100 0.7341 0.0000
vt 0.0100 0.7313 0.0000
vt 0.0205 0.7313 0.0000
vt 0.0205 0.7341 0.0000
vt 0.0257 0.7313 0.0000
vt 0.0257 0.7341 0.0000
vt 0.0310 0.7313 0.0000
vt 0.0310 0.7341 0.0000
vt 0.0362 0.7313 0.0000
vt 0.0362 0.7341 0.0000
vt 0.0414 0.7313 0.0000
vt 0.0414 0.7341 0.0000
vt 0.0140 0.7023 0.0000
vt 0.0187 0.7023 0.0000
vt 0.0220 0.7056 0.0000
vt 0.0106 0.7104 0.0000
vt 0.0187 0.7137 0.0000
vt 0.0220 0.7104 0.0000
vt 0.0140 0.7137 0.0000
vt 0.0106 0.7056 0.0000
vt 0.0532 0.7054 0.0000
vt 0.0532 0.7106 0.0000
vt 0.0495 0.7143 0.0000
vt 0.0443 0.7017 0.0000
vt 0.0406 0.7106 0.0000
vt 0.0443 0.7143 0.0000
vt 0.0406 0.7054 0.0000
vt 0.0495 0.7017 0.0000
vt 0.1180 0.7143 0.0000
vt 0.1178 0.7137 0.0000
vt 0.1211 0.7104 0.0000
vt 0.1217 0.7106 0.0000
vt 0.1128 0.7143 0.0000
vt 0.1130 0.7137 0.0000
vt 0.1091 0.7106 0.0000
vt 0.1097 0.7104 0.0000
vt 0.1091 0.7054 0.0000
vt 0.1097 0.7056 0.0000
vt 0.1128 0.7017 0.0000
vt 0.1130 0.7023 0.0000
vt 0.1180 0.7017 0.0000
vt 0.1178 0.7023 0.0000
vt 0.1217 0.7054 0.0000
vt 0.1211 0.7056 0.0000
vt 0.0102 0.7108 0.0000
vt 0.0135 0.7142 0.0000
vt 0.0100 0.7056 0.0000
vt 0.0100 0.7104 0.0000
vt 0.0135 0.7019 0.0000
vt 0.0102 0.7052 0.0000
vt 0.0187 0.7017 0.0000
vt 0.0140 0.7017 0.0000
vt 0.0225 0.7052 0.0000
vt 0.0191 0.7019 0.0000
vt 0.0227 0.7104 0.0000
vt 0.0227 0.7056 0.0000
vt 0.0191 0.7142 0.0000
vt 0.0225 0.7108 0.0000
vt 0.0140 0.7143 0.0000
vt 0.0187 0.7143 0.0000
vt 0.0100 0.7590 0.0000
vt 0.0132 0.7590 0.0000
vt 0.0132 0.7875 0.0000
vt 0.0100 0.7875 0.0000
vt 0.0182 0.7869 0.0000
vt 0.0197 0.7597 0.0000
vt 0.0229 0.7599 0.0000
vt 0.0214 0.7871 0.0000
vt 0.0137 0.7907 0.0000
vt 0.0186 0.7901 0.0000
vt 0.0136 0.7558 0.0000
vt 0.0200 0.7565 0.0000
vt 0.1112 0.7305 0.0000
vt 0.1397 0.7305 0.0000
vt 0.1391 0.7355 0.0000
vt 0.1119 0.7370 0.0000
vt 0.1177 0.7839 0.0000
vt 0.1145 0.7839 0.0000
vt 0.1145 0.7553 0.0000
vt 0.1177 0.7554 0.0000
vt 0.1259 0.7558 0.0000
vt 0.1274 0.7830 0.0000
vt 0.1242 0.7832 0.0000
vt 0.1227 0.7560 0.0000
vt 0.1181 0.7521 0.0000
vt 0.1231 0.7528 0.0000
vt 0.0965 0.7413 0.0000
vt 0.0957 0.7478 0.0000
vt 0.0686 0.7463 0.0000
vt 0.0679 0.7413 0.0000
vt 0.1181 0.7871 0.0000
vt 0.1246 0.7864 0.0000
vt 0.0388 0.7517 0.0000
vt 0.0421 0.7518 0.0000
vt 0.0421 0.7803 0.0000
vt 0.0388 0.7803 0.0000
vt 0.0470 0.7797 0.0000
vt 0.0485 0.7525 0.0000
vt 0.0517 0.7527 0.0000
vt 0.0502 0.7799 0.0000
vt 0.0425 0.7835 0.0000
vt 0.0475 0.7829 0.0000
vt 0.0424 0.7485 0.0000
vt 0.0489 0.7493 0.0000
vt 0.0679 0.7197 0.0000
vt 0.0965 0.7197 0.0000
vt 0.0958 0.7247 0.0000
vt 0.0687 0.7262 0.0000
vt 0.0316 0.7994 0.0000
vt 0.1836 0.8040 0.0000
vt 0.3566 0.8217 0.0000
vt 0.3527 0.8587 0.0000
vt 0.3196 0.9900 0.0000
vt 0.1795 0.9738 0.0000
vt 0.0157 0.9424 0.0000
vt 0.0142 0.8822 0.0000
vt 0.3489 0.8957 0.0000
vt 0.3441 0.9697 0.0000
vt 0.0100 0.8217 0.0000
vt 0.3358 0.7994 0.0000
vt 0.0393 0.9665 0.0000
vt 0.0102 0.8212 0.0000
vt 0.0311 0.7996 0.0000
vt 0.0388 0.9664 0.0000
vt 0.0159 0.9429 0.0000
vt 0.3363 0.7997 0.0000
vt 0.3564 0.8212 0.0000
vt 0.3439 0.9702 0.0000
vt 0.3201 0.9899 0.0000
# 324 texture coords

g Smartphone
s 1
f 1/1/1 2/2/1 3/3/1 4/4/1 
f 5/5/1 1/1/1 4/4/1 
f 6/6/2 7/7/2 8/8/2 9/9/2 
f 10/10/2 9/9/2 8/8/2 
f 11/11/3 12/12/3 13/13/3 14/14/3 
f 15/15/4 16/16/4 17/17/4 18/18/4 
f 19/19/5 20/20/5 21/21/5 22/22/5 
f 23/23/6 24/24/6 25/25/6 26/26/6 
f 27/27/1 28/28/1 29/29/1 3/3/1 
f 30/30/1 27/27/1 3/3/1 
f 31/31/2 32/32/2 7/7/2 33/33/2 
f 6/6/2 33/33/2 7/7/2 
f 34/34/7 35/35/7 12/12/7 11/11/7 
f 36/36/8 37/37/8 20/20/8 19/19/8 
f 2/2/1 38/38/1 39/39/1 40/40/1 
f 2/2/1 40/40/1 30/30/1 3/3/1 
f 7/7/2 41/41/2 42/42/2 43/43/2 
f 42/42/2 44/44/2 43/43/2 
f 7/7/2 43/43/2 8/8/2 
f 45/45/9 46/46/9 16/16/9 15/15/9 
f 47/47/10 48/48/10 24/24/10 23/23/10 
f 49/49/1 50/50/1 4/4/1 3/3/1 
f 29/29/1 49/49/1 3/3/1 
f 51/51/2 52/52/2 41/41/2 7/7/2 
f 32/32/2 51/51/2 7/7/2 
f 18/18/11 17/17/11 35/53/11 34/54/11 
f 48/48/12 47/47/12 14/14/12 13/13/12 
f 22/22/13 21/21/13 46/46/13 45/45/13 
f 26/26/14 25/25/14 53/55/14 54/56/14 
f 55/57/2 56/58/2 57/59/2 58/60/2 
f 55/57/2 58/60/2 59/61/2 60/62/2 
f 56/58/2 61/63/2 62/64/2 63/65/2 
f 62/64/2 64/66/2 63/65/2 
f 56/58/2 63/65/2 57/59/2 
f 65/67/2 66/68/2 62/64/2 61/63/2 
f 67/69/2 68/70/2 66/68/2 65/67/2 
f 67/69/2 69/71/2 70/72/2 68/70/2 
f 69/71/2 71/73/2 72/74/2 70/72/2 
f 73/75/2 74/76/2 75/77/2 72/74/2 
f 71/73/2 73/75/2 72/74/2 
f 73/75/2 76/78/2 77/79/2 78/80/2 
f 78/80/2 77/79/2 79/81/2 80/82/2 
f 73/75/2 78/80/2 74/76/2 
f 81/83/2 82/84/2 83/85/2 84/86/2 
f 85/87/2 86/88/2 82/84/2 81/83/2 
f 85/87/2 87/89/2 88/90/2 86/88/2 
f 87/89/2 55/57/2 60/62/2 88/90/2 
f 89/91/15 6/92/15 9/93/15 90/94/15 
f 89/91/16 91/95/16 33/96/16 6/92/16 
f 92/97/17 31/98/17 33/99/17 91/95/17 
f 93/100/18 32/101/18 31/102/18 92/97/18 
f 94/103/19 51/104/19 32/101/19 93/100/19 
f 95/105/20 52/106/20 51/107/20 94/103/20 
f 96/108/21 41/109/21 52/110/21 95/105/21 
f 96/108/22 97/111/22 42/112/22 41/109/22 
f 98/113/23 43/114/23 44/115/23 99/116/23 
f 100/117/24 8/118/24 43/119/24 98/113/24 
f 100/117/25 101/120/25 10/121/25 8/118/25 
f 90/94/26 9/122/26 10/123/26 101/120/26 
f 102/124/2 103/125/2 89/91/2 90/94/2 
f 59/61/2 102/124/2 90/94/2 60/62/2 
f 62/64/2 91/95/2 89/91/2 104/126/2 
f 89/91/2 103/125/2 104/126/2 
f 62/64/2 104/126/2 64/66/2 
f 66/68/2 92/97/2 91/95/2 62/64/2 
f 68/70/2 93/100/2 92/97/2 66/68/2 
f 94/103/2 93/100/2 68/70/2 70/72/2 
f 95/105/2 94/103/2 70/72/2 72/74/2 
f 105/127/2 96/108/2 95/105/2 72/74/2 
f 75/77/2 105/127/2 72/74/2 
f 83/85/2 99/116/2 97/111/2 106/128/2 
f 97/111/2 107/129/2 106/128/2 
f 83/85/2 106/128/2 108/130/2 
f 82/84/2 98/113/2 99/116/2 83/85/2 
f 86/88/2 100/117/2 98/113/2 82/84/2 
f 101/120/2 100/117/2 86/88/2 88/90/2 
f 90/94/2 101/120/2 88/90/2 60/62/2 
f 109/131/2 110/132/2 111/133/2 112/134/2 
f 113/135/2 114/136/2 111/133/2 110/132/2 
f 111/133/2 115/137/2 116/138/2 112/134/2 
f 117/139/2 115/137/2 111/133/2 114/136/2 
f 118/140/27 110/132/27 109/131/27 119/141/27 
f 118/140/28 120/142/28 113/135/28 110/132/28 
f 121/143/29 114/136/29 113/135/29 120/144/29 
f 121/143/30 122/145/30 117/139/30 114/136/30 
f 123/146/31 115/137/31 117/139/31 122/147/31 
f 123/146/32 124/148/32 116/138/32 115/137/32 
f 125/149/33 112/134/33 116/138/33 124/150/33 
f 125/149/34 119/151/34 109/131/34 112/134/34 
f 126/152/2 127/153/2 128/154/2 129/155/2 
f 97/111/22 99/116/22 44/156/22 42/112/22 
f 54/56/8 53/55/8 37/37/8 36/36/8 
f 76/78/2 84/86/2 83/85/2 130/157/2 
f 83/85/2 108/130/2 130/157/2 
f 76/78/2 130/157/2 77/79/2 
f 97/111/2 96/108/2 105/127/2 80/82/2 
f 105/127/2 78/80/2 80/82/2 
f 97/111/2 80/82/2 131/158/2 107/129/2 
f 132/159/2 133/160/2 134/161/2 135/162/2 
f 136/163/2 137/164/2 134/161/2 133/160/2 
f 134/161/2 138/165/2 139/166/2 135/162/2 
f 140/167/2 138/165/2 134/161/2 137/164/2 
f 55/168/35 13/13/35 12/12/35 56/169/35 
f 65/170/36 17/17/36 16/16/36 67/171/36 
f 71/172/37 21/21/37 20/20/37 73/173/37 
f 81/174/38 25/25/38 24/24/38 85/175/38 
f 12/12/39 35/35/39 61/176/39 56/169/39 
f 20/20/40 37/37/40 76/177/40 73/173/40 
f 16/16/41 46/46/41 69/178/41 67/179/41 
f 24/24/42 48/48/42 87/180/42 85/175/42 
f 48/48/43 13/13/43 55/181/43 87/182/43 
f 61/183/44 35/53/44 17/17/44 65/184/44 
f 84/185/45 53/55/45 25/25/45 81/186/45 
f 46/46/46 21/21/46 71/187/46 69/188/46 
f 37/37/47 53/55/47 84/189/47 76/177/47 
f 141/190/48 142/191/48 143/192/48 144/193/48 
f 145/194/49 146/195/49 142/196/49 141/197/49 
f 147/198/50 148/199/50 146/195/50 145/194/50 
f 149/200/51 150/201/51 148/199/51 147/198/51 
f 151/202/52 152/203/52 150/201/52 149/200/52 
f 153/204/53 154/205/53 152/203/53 151/202/53 
f 155/206/54 156/207/54 154/205/54 153/204/54 
f 144/193/55 143/192/55 156/207/55 155/206/55 
f 157/208/1 158/209/1 159/210/1 160/211/1 
f 161/212/1 160/211/1 159/210/1 162/213/1 
f 161/212/1 163/214/1 160/211/1 
f 164/215/1 157/208/1 160/211/1 
f 142/216/2 146/217/2 148/218/2 156/219/2 
f 152/220/2 156/219/2 148/218/2 150/221/2 
f 152/220/2 154/222/2 156/219/2 
f 143/223/2 142/216/2 156/219/2 
f 144/224/1 165/225/1 166/226/1 141/227/1 
f 155/228/1 167/229/1 165/225/1 144/224/1 
f 153/230/1 168/231/1 167/229/1 155/228/1 
f 151/232/1 169/233/1 168/231/1 153/230/1 
f 149/234/1 170/235/1 169/233/1 151/232/1 
f 147/236/1 171/237/1 170/235/1 149/234/1 
f 145/238/1 172/239/1 171/237/1 147/236/1 
f 141/227/1 166/226/1 172/239/1 145/238/1 
f 165/240/52 160/211/52 163/214/52 166/241/52 
f 167/242/51 164/215/51 160/211/51 165/243/51 
f 168/244/50 157/208/50 164/215/50 167/245/50 
f 169/246/49 158/209/49 157/208/49 168/247/49 
f 170/248/48 159/210/48 158/209/48 169/249/48 
f 171/250/55 162/213/55 159/210/55 170/251/55 
f 172/252/54 161/212/54 162/213/54 171/253/54 
f 166/254/53 163/214/53 161/212/53 172/255/53 
f 173/256/1 174/257/1 175/258/1 176/259/1 
f 177/260/56 178/261/56 179/262/56 180/263/56 
f 176/264/57 175/258/57 177/260/57 180/265/57 
f 174/257/58 178/261/58 177/260/58 175/258/58 
f 174/257/59 173/266/59 179/267/59 178/261/59 
f 173/268/60 176/269/60 180/270/60 179/271/60 
f 181/272/1 182/273/1 183/274/1 184/275/1 
f 185/276/61 186/277/61 187/278/61 188/279/61 
f 184/275/62 183/280/62 185/281/62 188/279/62 
f 182/282/63 186/283/63 185/284/63 183/285/63 
f 182/286/64 181/272/64 187/278/64 186/287/64 
f 181/272/65 184/275/65 188/279/65 187/278/65 
f 189/288/1 190/289/1 191/290/1 192/291/1 
f 193/292/66 194/293/66 195/294/66 196/295/66 
f 192/296/67 191/290/67 193/292/67 196/297/67 
f 190/289/68 194/293/68 193/292/68 191/290/68 
f 190/289/69 189/298/69 195/299/69 194/293/69 
f 189/300/70 192/301/70 196/302/70 195/303/70 
f 47/304/71 23/305/71 2/2/71 1/1/71 
f 39/39/72 54/306/72 36/307/72 40/40/72 
f 28/28/73 45/308/73 15/309/73 29/29/73 
f 50/50/74 34/310/74 11/311/74 4/4/74 
f 19/312/75 22/313/75 27/27/75 30/30/75 
f 11/311/76 14/314/76 5/5/76 4/4/76 
f 23/305/77 26/315/77 38/38/77 2/2/77 
f 15/309/78 18/316/78 49/49/78 29/29/78 
f 1/1/79 5/5/79 14/317/79 47/318/79 
f 50/50/80 49/49/80 18/319/80 34/320/80 
f 39/39/81 38/38/81 26/321/81 54/322/81 
f 28/28/82 27/27/82 22/323/82 45/324/82 
f 36/307/83 19/312/83 30/30/83 40/40/83 
# 154 polygons - 24 triangles

